<svg xmlns="http://www.w3.org/2000/svg" version="1.1" xmlns:xlink="http://www.w3.org/1999/xlink" xmlns:svgjs="http://svgjs.dev/svgjs" viewBox="0 0 800 800"><defs><linearGradient x1="50%" y1="0%" x2="50%" y2="100%" id="uundulate-grad"><stop stop-color="hsl(37, 99%, 67%)" stop-opacity="1" offset="45%"></stop><stop stop-color="hsl(316, 73%, 52%)" stop-opacity="1" offset="100%"></stop></linearGradient></defs><g stroke-width="2" stroke="url(#uundulate-grad)" fill="none"><path d="M628.7948624785505 299.16698366948265C697.7274537931169 476.58108484311856 682.922457675558 671.8641698474391 627.7469443644998 785.719550440168C572.5714310534415 899.574931032897 462.91847146821533 868.3893514711717 363.9523985854703 845.6728105145812C264.98632570272514 822.9562695579912 196.5972875198338 768.2455008620082 152.70979452732405 676.6801538485356C108.8223015348143 585.1148068350634 123.2589506532438 560.8567050669606 153.29243222142253 406.15914484991504C183.3259137896012 251.4615846328694 197.80749975101293 -43.57810161402796 296.8705060545809 -65.8681351932845C395.93351235814896 -88.15816877254105 559.862271163984 121.75288249584673 628.7948624785505 299.16698366948265C697.7274537931169 476.58108484311856 682.922457675558 671.8641698474391 627.7469443644998 785.719550440168 "></path><path d="M618.3951556502464 303.7503331111752C684.1944473596052 473.10015695873676 670.0624056110262 659.5067380992245 617.3948701777433 768.1868741195567C564.7273347444604 876.8670101398889 460.0586005949265 847.0989569218784 365.590985570488 825.4149860087696C271.1233705460494 803.7310150956605 205.842925007835 751.5070995222222 163.95031806043926 664.103813736635C122.05771111304358 576.7005279510477 135.8381489079082 553.5450671724042 164.50647222298784 405.8792142379516C193.17479553806749 258.2133613034989 206.99812759214228 -23.415430113994034 301.5582699728209 -44.692280348738905C396.1184123534995 -65.96913058348377 552.5958639408875 134.40050926361369 618.3951556502464 303.7503331111752C684.1944473596052 473.10015695873676 670.0624056110262 659.5067380992245 617.3948701777433 768.1868741195567 "></path><path d="M607.9953725279969 308.33362151771144C670.6613646321481 469.6191680391987 657.2022772525492 647.1492453158538 607.0427196970417 750.6541367637892C556.8831621415341 854.1590282117245 457.1986534276923 825.8085013374289 367.22949626156037 805.1571004678012C277.2603390954284 784.5056995981736 215.08848620189082 734.7686371472801 175.1907652996092 651.527412589578C135.2930443973276 568.2861880318758 148.4172708686272 546.2333682426914 175.72043593060783 405.5992225908319C203.02360099258846 264.9650769389722 216.18867913932638 -3.2528196491163612 306.2459575971154 -23.516486539349557C396.3032360549046 -43.780153429582754 545.3293804238456 147.0480749962244 607.9953725279969 308.33362151771144C670.6613646321481 469.6191680391987 657.2022772525492 647.1492453158538 607.0427196970417 750.6541367637892 "></path><path d="M597.5956046645365 312.916970959404C657.1282971634802 466.1382401548168 644.3421641528612 634.7918135676392 596.6905844751291 733.1214604431777C549.039004797397 831.4511073187164 454.3387215192471 804.5181067881354 368.8680222114217 784.8992759619891C283.39732290359643 765.2804451358429 224.33406265473576 718.0302358074941 186.43122779756823 638.9510724776771C148.5283929404007 559.87190914786 160.9964080881353 538.9217303481349 186.9344148970169 405.31929197886825C212.8724217058985 271.7168536096017 225.37924594529954 16.90985185091762 310.93366048019914 -2.3406316948039603C396.48807501509884 -21.591115240525482 538.0629121655927 159.69570176399122 597.5956046645365 312.916970959404C657.1282971634802 466.1382401548168 644.3421641528612 634.7918135676392 596.6905844751291 733.1214604431777 "></path><path d="M587.1958520598652 317.50025936594034C643.5952449536013 462.65725123527875 631.4820663119622 622.4343207842683 586.3384645120054 715.5887230874102C541.1948627120487 808.743125390552 451.47880486959104 783.2276512036858 370.5065634200723 764.641390421021C289.5343219705535 746.0551296383562 233.5796543663697 701.291773432552 197.67170555431625 626.3746713306201C161.76375674226279 551.4575692286882 173.57556056643244 531.6100314184223 198.148409122215 405.03930033174856C222.72125767799758 278.46856924507495 234.5698280100617 37.07246231579529 315.6213786220719 18.835162114585387C396.6729292340822 0.5978619133755387 530.7964591661289 172.34326749660187 587.1958520598652 317.50025936594034C643.5952449536013 462.65725123527875 631.4820663119622 622.4343207842683 586.3384645120054 715.5887230874102 "></path><path d="M576.7960384200376 322.0836088076329C630.0621317085661 459.17632335089695 618.621907435907 610.0768890360538 575.9862835137255 698.0560467667989C533.3506595915442 786.0352044975439 448.61882718477864 761.9372566543925 372.14504359356647 744.3835659152091C295.67126000235436 726.8298751760258 242.82518504284747 684.5533720927662 208.91212227590808 613.7983312187193C174.99905950896868 543.0432903446724 186.15465200957334 524.2983935238658 209.36234231225689 404.7593697197851C232.57003261494043 285.22034591570446 243.76034903966763 57.235133815829215 320.30903572878844 40.011016959130984C396.85772241790914 22.786900102432753 523.529945131509 184.99089426436876 576.7960384200376 322.0836088076329C630.0621317085661 459.17632335089695 618.621907435907 610.0768890360538 575.9862835137255 698.0560467667989 "></path><path d="M566.3962858153662 326.66689721416924C616.5290794986872 455.6953344313589 605.7618095950081 597.7193962526829 565.6341635506021 680.5233094110313C525.5065175061961 763.3272225693795 445.7589105351226 740.646801069943 373.783584802217 724.1256803742409C301.8082590693115 707.6045596785389 252.07077675448141 667.814909717824 220.1526000326561 601.2219300716623C188.23442331083083 534.6289504255005 198.7338044878705 516.986694594153 220.576336537455 404.47937807266544C242.41886858703953 291.9720615511777 252.95093110442986 77.39774428070695 324.99675387066117 61.18681076852033C397.0425766368925 44.975877256333774 516.2634921320453 197.63845999697946 566.3962858153662 326.66689721416924C616.5290794986872 455.6953344313589 605.7618095950081 597.7193962526829 565.6341635506021 680.5233094110313 "></path><path d="M555.9965179519058 331.2502466558617C602.9960120300193 452.2144065469771 592.90169649532 585.3619645044685 555.2820283286894 662.9906330904199C517.6623601620588 740.6193016763715 442.8989786266774 719.3564065206497 375.4221107520784 703.867855868429C307.9452428774795 688.3793052162083 261.3163532073263 651.0765083780382 231.3930625306151 588.6455899597615C201.46977185390392 526.2146715414849 211.31294170737863 509.67505669959655 231.79031550386406 404.199447460702C252.26768930034956 298.7238382218072 262.141497910403 97.56041578074087 329.6844567537448 82.36266561306599C397.22741559708663 67.16491544539105 508.9970238737924 210.28608676474636 555.9965179519058 331.2502466558617C602.9960120300193 452.2144065469771 592.90169649532 585.3619645044685 555.2820283286894 662.9906330904199 "></path><path d="M545.5967500884454 335.83356557997615C589.4629445613514 448.7334481450173 580.0415833956321 573.0045022386757 544.9298931067768 645.4579262522305C509.8182028179216 717.9113502657852 440.03904671823216 698.0659814537782 377.06063670193987 683.6100008450389C314.0822266856475 669.1540202362996 270.56192966017124 634.3380765206741 242.63352502857413 576.0692193302826C214.705120396977 517.8003621398911 223.8920789268867 502.36338828746204 243.00429447027312 403.91948633116033C262.1165100136596 305.4755843748586 271.3320647163761 117.72305676319667 334.37215963682854 103.53848994003346C397.4122545572809 89.35392311687019 501.7305556155395 222.93368301493513 545.5967500884454 335.83356557997615C589.4629445613514 448.7334481450173 580.0415833956321 573.0045022386757 544.9298931067768 645.4579262522305 "></path><path d="M535.196982224985 340.4168845040906C575.9298770926835 445.25248974305725 567.181470295944 560.647039972883 534.5777578848642 627.9252194140411C501.9740454737844 695.2033988551991 437.17911480978705 676.7755563869068 378.6991626518013 663.352145821649C320.2192104938156 649.928735256391 279.80750611301613 617.5996446633101 253.87398752653309 563.4928487008037C227.94046894005004 509.3860527382974 236.4712161463948 495.05171987532754 254.21827343668218 403.63952520161877C271.9653307269696 312.22733052791 280.52263152234923 137.88569774565252 339.05986251991214 124.71431426700093C397.59709351747506 111.54293078834934 494.46408735728676 235.58127926512395 535.196982224985 340.4168845040906C575.9298770926835 445.25248974305725 567.181470295944 560.647039972883 534.5777578848642 627.9252194140411 "></path><path d="M524.7972143615248 345.000188169416C562.3968096240155 441.77151608230827 554.321357196256 548.2895624483014 524.2256226629515 610.3924973170626C494.12988812964704 672.4954321858238 434.31918290134195 655.4851160612463 380.33768860166276 643.0942755394698C326.3561943019836 630.7034350176932 289.0530825658611 600.8611975471571 265.1144500244921 550.9164628125359C241.17581748312313 500.9717280779146 249.05035336590288 487.74003620440385 265.43225240309124 403.35954881328814C281.81415144027966 318.9790614221723 289.7131983283224 158.04832346931926 343.74756540299586 145.89012333517934C397.78193247766933 133.73192320103942 487.1976190990339 248.22886025652366 524.7972143615248 345.000188169416C562.3968096240155 441.77151608230827 554.321357196256 548.2895624483014 524.2256226629515 610.3924973170626 "></path><path d="M514.3974464980643 349.58350709353044C548.8637421553475 438.29055768034834 541.4612440965681 535.9321001825086 513.873487441039 592.859790478873C486.2857307855098 649.7874807752376 431.4592509928967 634.1946909943749 381.9762145515242 622.8364205160797C332.49317811015163 611.4781500377846 298.29865901870596 584.1227656897931 276.35491252245106 538.3400921830569C254.4111660261962 492.5574186763208 261.62949058541096 480.42836779226934 276.6462313695003 403.0795876837466C291.6629721535897 325.73080757522376 298.90376513429555 178.21096445177506 348.4352682860795 167.0659476621468C397.96677143786354 155.92093087251857 479.93115084078113 260.87645650671243 514.3974464980643 349.58350709353044C548.8637421553475 438.29055768034834 541.4612440965681 535.9321001825086 513.873487441039 592.859790478873 "></path><path d="M503.997678634604 354.1668260176448C535.3306746866795 434.8095992783884 528.6011309968801 523.574637916716 503.52135221912636 575.3270836406837C478.4415734413725 627.0795293646513 428.5993190844516 612.9042659275035 383.61474050138565 602.5785654926897C338.6301619183197 592.2528650578759 307.5442354715509 567.3843338324291 287.5953750204101 525.7637215535781C267.64651456926924 484.14310927472695 274.20862780491905 473.11669938013483 287.86021033590936 402.799626554205C301.5117928668997 332.48255372827515 308.09433194026866 198.3736054342309 353.1229711691632 188.24177198911428C398.15161039805776 178.10993854399766 472.66468258252826 273.52405275690126 503.997678634604 354.1668260176448C535.3306746866795 434.8095992783884 528.6011309968801 523.574637916716 503.52135221912636 575.3270836406837 "></path><path d="M493.59791077114346 358.75014494175923C521.7976072180115 431.3286408764284 515.741017897192 511.2171756509232 493.16921699721365 557.7943768024942C470.5974160972353 604.3715779540651 425.73938717600646 591.613840860632 385.2532664512471 582.3207104692996C344.7671457264877 573.0275800779672 316.7898119243958 550.645901975065 298.8358375183691 513.1873509240991C280.88186311234233 475.7287998731331 286.7877650244272 465.8050309680002 299.0741893023185 402.51966542466334C311.3606135802097 339.23429988132654 317.28489874624177 218.5362464166867 357.8106740522469 209.41759631608176C398.336449358252 200.2989462154768 465.3982143242754 286.17164900708997 493.59791077114346 358.75014494175923C521.7976072180115 431.3286408764284 515.741017897192 511.2171756509232 493.16921699721365 557.7943768024942 "></path><path d="M483.1981429076832 363.3334486070846C508.2645397493436 427.8476672156794 502.88090479750406 498.8596981263415 482.81708177530106 540.2616547055156C462.75325875309807 581.6636112846898 422.8794552675613 570.3234005349715 386.8917924011085 562.0628401871204C350.90412953465574 553.8022798392694 326.0353883772407 533.9074548589119 310.07630001632805 500.6109650358312C294.1172116554154 467.31447521275027 299.3669022439353 458.4933472970765 310.28816826872753 402.2396890363327C321.20943429351973 345.98603077558886 326.4754655522149 238.69887214035344 362.49837693533055 230.59340538426017C398.52128831844624 222.4879386281669 458.13174606602263 298.81922999848973 483.1981429076832 363.3334486070846C508.2645397493436 427.8476672156794 502.88090479750406 498.8596981263415 482.81708177530106 540.2616547055156 "></path><path d="M472.79837504422267 367.916767531199C494.7314722806757 424.3667088137196 490.0207916978161 486.5022358605488 472.4649465533885 522.7289478673263C454.90910140896085 558.9556598741035 420.0195233591161 549.0329754681001 388.53031835096994 541.8049851637304C357.0411133428238 534.5769948593608 335.2809648300856 517.169023001548 321.31676251428706 488.0345944063522C307.3525601984885 458.9001658111565 311.94603946344336 451.1816788849419 321.5021472351366 401.9597279067911C331.05825500682977 352.73777692864024 335.6660323581881 258.8615131228093 367.18607981841427 251.76922971122764C398.70612727864045 244.67694629964603 450.86527780776976 311.4668262486785 472.79837504422267 367.916767531199C494.7314722806757 424.3667088137196 490.0207916978161 486.5022358605488 472.4649465533885 522.7289478673263 "></path><path d="M462.3986071807624 372.50008645531346C481.19840481200777 420.8857504117596 477.160678598128 474.1447735947561 462.11281133147577 505.1962410291368C447.0649440648235 536.2477084635174 417.159591450671 527.7425504012286 390.1688443008314 521.5471301403404C363.1780971509918 515.3517098794521 344.5265412829305 500.43059114418406 332.557225012246 475.4582237768734C320.5879087415616 450.48585640956276 324.52517668295144 443.8700104728074 332.71612620154565 401.67976677724954C340.9070757201398 359.48952308169163 344.8565991641612 279.0241541052651 371.87378270149793 272.9450540381951C398.89096623883466 266.8659539711252 443.59880954951694 324.1144224988673 462.3986071807624 372.50008645531346C481.19840481200777 420.8857504117596 477.160678598128 474.1447735947561 462.11281133147577 505.1962410291368 "></path><path d="M451.998839317302 377.08340537942786C467.66533734333973 417.4047920097997 464.30056549844005 461.7873113289635 451.7606761095632 487.6635341909473C439.22078672068625 513.5397570529311 414.2996595422258 506.4521253343572 391.8073702506928 501.2892751169503C369.31508095915984 496.1264248995434 353.77211773577545 483.69215928682 343.79768751020504 462.8818531473945C333.8232572846346 442.07154700796895 337.1043139024595 436.5583420606729 343.9301051679547 401.399805647708C350.75589643344983 366.2412692347431 354.0471659701343 299.1867950877209 376.5614855845816 294.12087836516264C399.0758051990289 289.0549616426043 436.33234129126413 336.7620187490561 451.998839317302 377.08340537942786C467.66533734333973 417.4047920097997 464.30056549844005 461.7873113289635 451.7606761095632 487.6635341909473 "></path><path d="M441.59908671263065 381.6667243035423C454.13228513346087 413.9238336078397 451.4404676575411 449.42984906317076 441.4085561464396 470.1308273527578C431.3766446353381 490.8318056423449 411.4397428925697 485.16170026748574 393.44591145934334 481.0314200935602C375.4520800261169 476.9011399196347 363.0177094474094 466.95372742945597 355.0381652669531 450.3054825179156C347.05862108649677 433.65723760637513 349.68346638075667 429.24667364853826 355.1440993931528 401.11984451816636C360.60473240554893 372.9930153877944 363.2377480348965 319.34943607017675 381.24920372645437 315.2967026921301C399.26065941801215 311.2439693140835 429.0658882918004 349.40961499924487 441.59908671263065 381.6667243035423C454.13228513346087 413.9238336078397 451.4404676575411 449.42984906317076 441.4085561464396 470.1308273527578 "></path><path d="M431.1993035903812 386.2500432276567C440.5992024060039 410.4428752058798 438.580339299064 437.07238679737804 431.0564056657379 452.5981205145684C423.53247203241176 468.1238542317587 408.5797957253355 463.8712752006143 395.08442215041566 460.7735650701702C381.5890485754959 457.67585493972604 372.2632706414653 450.21529557209203 366.278612506123 437.7291118884367C360.2939543707808 425.2429282047814 362.26258834147575 421.9350052364037 366.3580631007728 400.8398833886248C370.4535378600699 379.74476154084584 372.4282995820806 339.51207705263255 385.93689135074897 336.4725270190976C399.4454831194173 333.43297698556256 421.7994047747585 362.05721124943364 431.1993035903812 386.2500432276567C440.5992024060039 410.4428752058798 438.580339299064 437.07238679737804 431.0564056657379 452.5981205145684 "></path><path d="M420.7995357269208 390.8333774105602C427.0661349373359 406.9619320627089 425.72022619937604 424.71493979037444 420.70427044382524 435.065428935168C415.6883146882745 445.4159180799615 405.7198638168903 442.5808653925319 396.7229481002771 440.51572530556916C387.72603238366395 438.4505852186064 381.50884709431017 433.47687897351705 377.519075004082 425.15275651774687C373.5293029138538 416.82863406197663 374.84172556098383 414.6233520830582 377.5720420671819 400.55993751787224C380.30235857337993 386.4965229526863 381.61886638805373 359.6747332938774 390.6245942338326 357.6483666048541C399.6303220796116 355.62199991583077 414.53293651650563 374.7048227584115 420.7995357269208 390.8333774105602C427.0661349373359 406.9619320627089 425.72022619937604 424.71493979037444 420.70427044382524 435.065428935168 "></path><path d="M410.3997678634604 395.41668107588555C413.533067468668 403.4809584019599 412.860113099688 412.35746226579266 410.35213522191265 417.5327068381895C407.8441573441373 422.70795141058625 402.85993190844516 421.2904250668714 398.36147405013855 420.25785502339005C393.86301619183195 419.2252849799087 390.7544235471551 416.738431857364 388.759537502041 412.5763706294789C386.7646514569269 408.4143094015938 387.4208627804919 407.31166841213457 388.78602103359094 400.27996112954156C390.15117928668997 393.2482538469486 390.80943319402684 379.8373590175442 395.31229711691634 378.8241756730325C399.8151610398058 377.81099232852085 407.2664682582528 387.35240374981123 410.3997678634604 395.41668107588555C413.533067468668 403.4809584019599 412.860113099688 412.35746226579266 410.35213522191265 417.5327068381895 "></path></g></svg>