<svg xmlns="http://www.w3.org/2000/svg" version="1.1" xmlns:xlink="http://www.w3.org/1999/xlink" xmlns:svgjs="http://svgjs.dev/svgjs" viewBox="0 0 800 800"><defs><linearGradient x1="50%" y1="0%" x2="50%" y2="100%" id="uundulate-grad"><stop stop-color="hsl(37, 99%, 67%)" stop-opacity="1" offset="45%"></stop><stop stop-color="hsl(316, 73%, 52%)" stop-opacity="1" offset="100%"></stop></linearGradient></defs><g stroke-width="2" stroke="url(#uundulate-grad)" fill="none"><path d="M595.9116444996444 360.6439961178487C621.0757562390412 476.5050183721006 701.0351591475535 623.9632986320498 666.464378293701 672.1204721424749C631.8935974398485 720.2776456529 503.31868482149207 622.3319279339999 429.97189640115243 591.7984289678891C356.625107980813 561.2649300017783 377.8201554959303 573.4126149741813 314.39979387607195 525.5596771051443C250.97943225621378 477.7067392361073 115.26040103425657 411.7680126568056 125.55416062583294 362.1043271965118C135.8479202174093 312.4406417362179 276.2843229742299 338.448312286243 363.80983991563915 287.1739868957335C451.3353568570483 235.89966150522383 497.32209932292835 100.68131340079191 545.6766419445962 115.98756532206579C594.0311845662641 131.29381724333967 570.7475327602474 244.7829738635968 595.9116444996444 360.6439961178487C621.0757562390412 476.5050183721006 701.0351591475535 623.9632986320498 666.464378293701 672.1204721424749 "></path><path d="M587.0065988800759 362.43296642037546C611.0268873585912 473.02757857216136 687.3517719530802 613.7832097293856 654.3523902289483 659.7514208075187C621.3530085048162 705.7196318856518 498.62241009638524 612.2259922448834 428.6095666042429 583.080379595414C358.5967231121007 553.9347669459447 378.82835937653067 565.530284419602 318.2907414666661 519.8524800900667C257.75312355680137 474.1746757605314 128.2031392085695 411.23316402574346 138.02900063689236 363.82691881364474C147.85486206521523 316.4206736015461 281.9077919694531 341.24617730838827 365.4548763226164 292.30250307199276C449.0019606757796 243.3588288355972 492.898396665938 114.28676928136673 539.0550055320755 128.8972824789463C585.211614398213 143.50779567652592 562.9863104015608 251.83835426858957 587.0065988800759 362.43296642037546C611.0268873585912 473.02757857216136 687.3517719530802 613.7832097293856 654.3523902289483 659.7514208075187 "></path><path d="M578.1014922253514 364.22184517016785C600.9779574429849 469.55004721948774 673.6683237234506 603.603029273987 642.2403411290393 647.3822779198281C610.8123585346278 691.161526565669 493.9260743361219 602.1199650030323 427.247175772177 574.3622386702045C360.5682772082321 546.6045123373766 379.8365022219749 557.6478623122885 322.18162802210384 514.1451915222547C264.5267538222327 470.6425207322211 141.14581634772617 410.69822384194686 150.50377961279554 365.5494188780434C159.86174287786497 320.40061391413985 287.5311999295201 344.04395077779907 367.0998516944376 297.43092769551765C446.66850345935495 250.81790461323618 488.4746329737915 127.89213360920712 532.4333080843986 141.80690808309248C576.3919831950057 155.72168255697784 555.2250270077177 258.8936431208479 578.1014922253514 364.22184517016785C600.9779574429849 469.55004721948774 673.6683237234506 603.603029273987 642.2403411290393 647.3822779198281 "></path><path d="M569.1964771233611 366.0108154726946C590.929119080113 466.0726074195485 659.9849670465554 593.422940371323 630.1283835818647 635.0132265848717C600.2718001171738 676.6035127984206 489.2298301285932 592.0140293139159 425.8848764928455 565.6441892977294C362.53992285709774 539.274349281543 380.8447366201535 549.7655317577091 326.072606130276 508.4379945071771C271.3004756403984 467.1104572566451 154.08858503961716 410.1633752108846 162.9786501414331 367.27201049517635C171.86871524324908 324.38064577946807 293.15469944232143 346.84181579994424 368.744918618993 302.5594438717769C444.33513779566454 258.27707194360954 484.0509608343792 141.49758948978194 525.8117021894559 154.71662523997298C567.5724435445327 167.93566099016408 547.4638351666092 265.9490235258407 569.1964771233611 366.0108154726946C590.929119080113 466.0726074195485 659.9849670465554 593.422940371323 630.1283835818647 635.0132265848717 "></path><path d="M560.2913552098474 367.799694222487C580.8801739057176 462.595076066875 646.3015035581368 583.2427599159244 618.0163192231665 622.6440836971813C589.7311348881963 662.045407478438 484.5334791095411 581.9080020720651 424.52247040199063 556.92604837252C364.5114616944401 531.9440946729749 381.8528642068087 541.8831096503955 329.96347742692467 502.7307059393652C278.0740906470407 463.5783022283349 167.03124691998477 409.62843502708813 175.45341385854726 368.994510559575C183.8755807971097 328.36058609206185 298.77809214359934 349.63958926935516 370.38987873202495 307.6878684953018C442.0016653204507 265.73614772124847 479.62718188344354 155.10295381762234 519.18998948299 167.62625084411917C558.7527970825364 180.14954787061595 539.7025365139773 273.00431237809903 560.2913552098474 367.799694222487C580.8801739057176 462.595076066875 646.3015035581368 583.2427599159244 618.0163192231665 622.6440836971813 "></path><path d="M551.3862638139119 369.58855771349033C570.8312592489004 459.1175294554123 632.6180705872962 573.0625642017367 605.9042853820465 610.2749255507015C579.1905001767971 647.4872868996663 479.83715860806706 571.8019595714252 423.1600948287137 548.2078921885216C366.48303104936053 524.6138248056178 382.861022311042 534.0006722842928 333.8543792411515 497.0234021127642C284.8477361712611 460.04613194123556 179.9739393179305 409.09347958450246 187.9282080932395 370.7169953651845C195.8824768685485 332.34051114586657 304.40151536245537 352.4373474799769 372.03486936263516 312.81627786003764C439.66822336281496 273.1952082400984 475.2034334500861 168.70830288667372 512.568307294102 180.53586118947624C549.9331811381181 192.3634194922788 531.9412683789234 280.05958597156837 551.3862638139119 369.58855771349033C570.8312592489004 459.1175294554123 632.6180705872962 573.0625642017367 605.9042853820465 610.2749255507015 "></path><path d="M542.4812029355545 371.3774517220718C560.7823751096614 455.64001336152774 618.9346681340339 562.8823990051271 593.7922820585048 597.9057979218C568.6498959829757 632.9291968384728 475.14086862417116 561.6959475883634 421.7977497730151 539.4897665221011C368.454630921859 517.2835854558389 383.8692109328533 526.1182654357682 337.7453115729565 491.3161288037413C291.6214122130596 456.51399217171434 192.91666223345436 408.55855465949503 200.40303284550987 372.43951068837225C207.88940345756538 336.3204667172494 310.0249690988895 355.23513620817675 373.6798905108235 317.9447177423516C437.33481192275735 280.65429927652644 470.77971553430666 182.31368247330317 505.94665562279226 193.44550205241148C541.113595711278 204.57732163151974 524.1800307614476 287.11489008261583 542.4812029355545 371.3774517220718C560.7823751096614 455.64001336152774 618.9346681340339 562.8823990051271 593.7922820585048 597.9057979218 "></path><path d="M533.576111539619 373.16633047186417C550.7334604528442 452.1624820088541 605.2512351631934 552.7022185497285 581.6802482173849 585.5366550341093C558.1092612715763 618.37109151849 470.4445481226969 551.5899203465126 420.43537419973825 530.7716255968917C370.42620027677947 509.95333084727076 384.8773690370866 518.2358433284546 341.6362133871833 485.6088402359293C298.39505773728 452.98183714340405 205.8593546314001 408.0236144756984 212.8778270802021 374.1620107527708C219.89629952900418 340.3004070298432 315.64839231774556 358.03290967758755 375.3248811414336 323.0731423658765C435.0013699651216 288.11337505416543 466.3559671009491 195.91904680114362 499.32497343390446 206.3551276565576C532.2939797668597 216.79120851197166 516.4187626263938 294.17017893487423 533.576111539619 373.16633047186417C550.7334604528442 452.1624820088541 605.2512351631934 552.7022185497285 581.6802482173849 585.5366550341093 "></path><path d="M524.6710964376288 374.95531603318C540.6846220899722 448.6850574677039 591.5678784862982 542.5221449058535 569.5682906702102 573.1676189579422C547.5687028541223 603.8130930100308 465.7483039151682 541.4839999161852 419.0730749204067 522.0535914832058C372.39784592564524 502.6231830502261 385.88560343526524 510.35352803266437 345.5271914953555 479.9016584796409C305.16877955544567 449.4497889266172 218.80212332329114 407.48878110342525 225.35269760883972 375.88461762869287C231.9032718943883 344.2804541539604 321.2718918305469 360.83078995852185 376.9699480659891 328.2016738009248C432.6680043014312 295.57255764332785 461.93229496153685 209.5245179405075 492.70336753896186 219.26486007222724C523.4744401163869 229.00520220394696 508.6575707852853 301.22557459865607 524.6710964376288 374.95531603318C540.6846220899722 448.6850574677039 591.5678784862982 542.5221449058535 569.5682906702102 573.1676189579422 "></path><path d="M515.7660050416932 376.7441947829724C530.635707433155 445.2075261150303 577.8844455154577 532.341964450455 557.4562568290903 560.7984760702515C537.028068142723 589.2549876900481 461.0519834136942 531.3779726743344 417.7106993471299 513.3354505579962C374.36941528056565 495.2929284416581 386.89376153949854 502.4711059253507 349.41809330958233 474.19436991182886C311.9424250796661 445.91763389830703 231.74481572123682 406.95384091962876 237.82749184353196 377.6071176930915C243.91016796582704 348.2603944665542 326.89531504940294 363.6285634279327 378.6149386965992 333.3300984244497C430.3345623437956 303.0316334209668 457.5085465281793 223.1298822683479 486.08168535007394 232.17448567637337C514.6548241719686 241.2190890843989 500.8963026502314 308.2808634509144 515.7660050416932 376.7441947829724C530.635707433155 445.2075261150303 577.8844455154577 532.341964450455 557.4562568290903 560.7984760702515 "></path><path d="M506.8609441633357 378.53311930913196C520.5868232939159 441.73004053872387 564.2010430621954 522.1618297714235 545.3442535055485 548.429378958928C526.4874639489017 574.6969281464326 456.3556934297983 521.2719912088507 416.3483542914312 504.617355409154C376.3410151530642 487.96271960945717 387.90195016130997 494.5887295944043 353.3090256413873 468.487127120384C318.7161011214646 442.3855246463638 244.68753863676068 406.41894651219934 250.30231659580232 379.32966353385723C255.91709455484397 352.2403805555152 332.5187687858371 366.4263826737107 380.25995984478755 338.4585688243418C428.001150903738 310.49075497497296 453.08482861239986 236.73529237255553 479.46003367876415 245.08415705688674C505.83523874512844 253.43302174121794 493.1350650327556 315.33619807954 506.8609441633357 378.53311930913196C520.5868232939159 441.73004053872387 564.2010430621954 522.1618297714235 545.3442535055485 548.429378958928 "></path><path d="M497.95583750861124 380.3220285765025C510.5378933783097 438.2525397036284 550.5175948325658 511.98167983360304 533.2322044056395 536.0602665888156C515.9468139787133 560.1388533440281 451.6593576695351 511.16599448457805 414.9859634593653 495.8992450015227C378.3125692491956 480.6324955184673 388.9100930067542 486.70633800466885 357.19991219682504 462.7798690701502C325.489731386896 438.8534001356318 257.63021577591735 405.8840368459809 262.7770955717055 381.052194115834C267.9239753674937 356.2203513856871 338.142176745904 369.2241866606996 381.90493521660864 343.58702396544487C425.6676936873132 317.94986127019007 448.66106492025324 250.34068721797405 472.83833623108717 257.993813178611C497.0156075419211 265.64693913924793 485.37378163891276 322.3915174493765 497.95583750861124 380.3220285765025C510.5378933783097 438.2525397036284 550.5175948325658 511.98167983360304 533.2322044056395 536.0602665888156 "></path><path d="M489.0507918890429 382.110937843873C500.48902449785965 434.77503886853293 536.8342076380925 501.80152989578255 521.1202163408868 523.6911542187031C505.40622504368116 545.5807785416235 446.96308294442815 501.05999776030524 413.6236336624557 487.18113459389133C380.2841843804832 473.3022714274773 389.91829688735464 478.8239464149333 361.0908597874191 457.0726110199164C332.2634226874835 435.3212756248996 270.57295395023027 405.3491271797625 275.251935582765 382.77472469781077C279.93091721529964 360.200322215859 343.76564574112723 372.0219906476886 383.549971623586 348.7154791065479C423.33429750604466 325.4089675654071 444.2373622632629 263.9460820633926 466.21669981856644 270.9034693003353C488.19603737387 277.860856537278 477.61255928022604 329.446836819213 489.0507918890429 382.110937843873C500.48902449785965 434.77503886853293 536.8342076380925 501.80152989578255 521.1202163408868 523.6911542187031 "></path><path d="M480.1456852343183 383.8998471112435C490.4400945822533 431.2975380334375 523.1507594084629 491.6213799579622 509.00816724097785 511.32204184859063C494.86557507349266 531.022703739219 442.26674718416507 490.95400103603254 412.26124283038985 478.46302418626C382.25573847661457 465.97204733648744 390.9264397327989 470.9415548251977 364.98174634285687 451.3653529696826C339.03705295291485 431.78915111416745 283.51563108938694 404.81421751354407 287.72671455866816 384.4972552797875C291.9377980279494 364.1802930460309 349.3890537011942 374.8197946346776 385.194946995407 353.8439342476509C421.0008402896199 332.86807386062424 439.8135985711163 277.5514769088112 459.59500237088946 283.81312542205956C479.3764061706627 290.074773935308 469.8512758863832 336.5021561890495 480.1456852343183 383.8998471112435C490.4400945822533 431.2975380334375 523.1507594084629 491.6213799579622 509.00816724097785 511.32204184859063 "></path><path d="M471.2406090971717 385.68874111982495C480.39119518422524 427.82002193955293 509.4673416964115 481.4412147613526 496.896148658647 498.9529142196891C484.3249556208824 516.4646136780254 437.5704419414801 480.8479890529708 410.8988825159021 469.7448985198396C384.22732309032403 458.6418079867085 391.9346130958212 463.05914797667316 368.8726634158728 445.6580796606597C345.8107137359243 428.25701134464623 296.4583387461217 404.2792925885366 300.20152405214947 386.2197706029752C303.94470935817725 368.1602486174138 355.0124921788393 377.61758336287744 386.8399528848063 358.97237412996486C418.6674135907732 340.3271648970523 435.38986539654786 291.15685649544065 452.97333544079066 296.7227662849948C470.5568054850335 302.28867607454896 462.09002301011833 343.557460300097 471.2406090971717 385.68874111982495C480.39119518422524 427.82002193955293 509.4673416964115 481.4412147613526 496.896148658647 498.9529142196891 "></path><path d="M462.3355329600253 387.47765038719547C470.34229578619704 424.34252110445743 495.78392398436006 471.2610648235322 484.78413007631605 486.5838018495765C473.7843361682721 501.90653887562087 432.87413669879504 470.7419923286981 409.5365222014143 461.02678811220835C386.19890770403356 451.3115838957185 392.94278645884356 455.17675638693765 372.7635804888887 439.9508216104259C352.58437451893377 424.72488683391407 309.4010464028565 403.7443829223181 312.67633354563077 387.94230118495193C315.95162068840506 372.1402194475857 360.6359306564844 380.41538734986636 388.4849587742055 364.1008292710679C416.33398689192654 347.7862711922694 430.96613222197936 304.7622513408592 446.35166851069187 309.63242240671906C461.73720479940437 314.50259347257895 454.3287701338536 350.6127796699335 462.3355329600253 387.47765038719547C470.34229578619704 424.34252110445743 495.78392398436006 471.2610648235322 484.78413007631605 486.5838018495765 "></path><path d="M453.4304568228788 389.266559654566C460.2933963881689 420.86502026936193 482.1005062723086 461.08091488571176 472.6721114939852 474.214689479464C463.2437167156618 487.3484640732163 428.1778314561101 460.6359956044254 408.1741618869265 452.308677704577C388.170492317743 443.9813598047286 393.9509598218659 447.29436479720215 376.6544975619046 434.243563560192C359.35803530194323 421.1927623231819 322.3437540595913 403.20947325609967 325.1511430391121 389.6648317669286C327.9585320186329 376.1201902777576 366.2593691341295 383.21319133685535 390.1299646636047 369.2292844121709C414.00056019307993 355.24537748748645 426.54239904741087 318.36764618627774 439.730001580593 322.54207852844337C452.91760411377516 326.71651087060894 446.56751725758875 357.66809903976997 453.4304568228788 389.266559654566C460.2933963881689 420.86502026936193 482.1005062723086 461.08091488571176 472.6721114939852 474.214689479464 "></path><path d="M444.5253806857324 391.0554689219365C450.24449699014076 417.38751943426644 468.4170885602572 450.9007649478913 460.56009291165435 461.84557710935155C452.7030972630515 472.7903892708118 423.481526213425 450.5299988801526 406.81180157243875 443.59056729694566C390.14207693145255 436.65113571373865 394.9591331848883 439.41197320746664 380.54541463492046 428.5363055099582C366.1316960849527 417.6606378124498 335.2864617163261 402.67456358988125 337.62595253259343 391.38736234890536C339.9654433488608 380.1001611079295 371.8828076117746 386.0109953238443 391.7749705530039 374.3577395532739C411.66713349423327 362.70448378270356 422.11866587284237 331.9730410316963 433.10833465049416 335.4517346501676C444.09800342814594 338.930428268639 438.80626438132396 364.7234184096065 444.5253806857324 391.0554689219365C450.24449699014076 417.38751943426644 468.4170885602572 450.9007649478913 460.56009291165435 461.84557710935155 "></path><path d="M435.6202892897968 392.84436293051795C440.19558233332356 413.91000334038193 454.7336555894167 440.7205997512818 448.44805907053444 449.47644948045C442.16246255165214 458.2322992096182 418.785205711951 440.42398689709086 405.449425999162 434.87244163052526C392.11364628637295 429.3208963639597 395.96729128912153 431.529566358942 384.43631644914734 422.82903220093533C372.9053416091731 414.1284980429286 348.2291541142718 402.13963866487376 350.10074676728567 393.10987767209303C351.97233942029953 384.08011667931237 377.50623083063056 388.8087840520442 393.4199611836141 379.4861794355879C409.33369153659754 370.1635748191316 417.69491743948487 345.5784206183258 426.48665246160624 348.36137551310287C435.27838748372767 351.1443304078799 431.0449962462701 371.77872252065396 435.6202892897968 392.84436293051795C440.19558233332356 413.91000334038193 454.7336555894167 440.7205997512818 448.44805907053444 449.47644948045 "></path><path d="M426.7152284114394 394.6332874566775C430.1466981940845 410.4325177640755 441.0502531361543 430.5404650722504 436.3360557469926 437.10735236912654C431.6218583578309 443.6742396660027 414.08891572805504 430.3180054316072 404.08708094346326 426.15434648168304C394.08524615887154 421.99068753175885 396.97547991093296 423.6471900279956 388.3272487809523 417.12178940949053C379.6790176509716 410.5963887909855 361.17187702979567 401.6047442574444 362.57557151955604 394.83242351285884C363.97926600931646 388.06010276827334 383.1296845670647 391.6066032978222 395.06498233180236 384.61464983548C407.00028009653994 377.6226963731378 413.27119952370543 359.1838307225334 419.8650007902965 361.2710468936162C426.4588020568876 363.35826306469903 423.2837586287944 378.83405714927954 426.7152284114394 394.6332874566775C430.1466981940845 410.4325177640755 441.0502531361543 430.5404650722504 436.3360557469926 437.10735236912654 "></path><path d="M417.81015227429293 396.422181465259C420.0977987960563 406.95500167019094 427.3668354241029 420.3602998756409 424.22403716466175 424.738224740225C421.08123890522063 429.1161496048091 409.39261048537 420.21199344854546 402.7247206289755 417.43622081526263C396.056830772581 414.66044818197986 397.9836532739553 415.764783179471 392.2181658539682 411.41451610046767C386.4526784339811 407.0642490214643 374.1145846865304 401.06981933243685 375.0503810130374 396.5549388360465C375.9861773395443 392.0400583396562 388.7531230447098 394.4043920260221 396.70998822120157 389.74308971779396C404.66685339769333 385.0817874095658 408.84746634913694 372.7892103091629 413.24333386019765 374.18068775655144C417.63920137125837 375.57216520393996 415.5225057525296 385.88936126032695 417.81015227429293 396.422181465259C420.0977987960563 406.95500167019094 427.3668354241029 420.3602998756409 424.22403716466175 424.738224740225 "></path><path d="M408.90507613714647 398.21110599141855C410.04889939802814 403.47751609388456 413.68341771205144 410.1801651966095 412.11201858233085 412.36912762890154C410.5406194526103 414.55809006119364 404.696305242685 410.10601198306176 401.3623603144878 408.7181256664204C398.02841538629053 407.330239349779 398.99182663697763 407.88240684852457 396.1090829269841 405.70727330902287C393.22633921699054 403.5321397695212 387.0572923432652 400.5349249250075 387.5251905065187 398.2774846768123C387.99308866977213 396.02004442861715 394.3765615223549 397.20221127180014 398.3549941106008 394.87156011768604C402.33342669884667 392.54090896357195 404.4237331745685 386.3946204133705 406.62166693009885 387.09035913706475C408.8196006856292 387.78609786075907 407.7612528762648 392.94469588895254 408.90507613714647 398.21110599141855C410.04889939802814 403.47751609388456 413.68341771205144 410.1801651966095 412.11201858233085 412.36912762890154 "></path></g></svg>