<svg xmlns="http://www.w3.org/2000/svg" version="1.1" xmlns:xlink="http://www.w3.org/1999/xlink" xmlns:svgjs="http://svgjs.dev/svgjs" viewBox="0 0 800 800"><defs><linearGradient x1="50%" y1="0%" x2="50%" y2="100%" id="uundulate-grad"><stop stop-color="hsl(37, 99%, 67%)" stop-opacity="1" offset="45%"></stop><stop stop-color="hsl(316, 73%, 52%)" stop-opacity="1" offset="100%"></stop></linearGradient></defs><g stroke-width="2" stroke="url(#uundulate-grad)" fill="none"><path d="M674.9866550920468 330.3028559293191C676.4674336916191 380.3922952381081 555.382913265681 411.2922925427423 470.6290834180479 464.78403833849734C385.87525357041454 518.2757841342524 339.9164103445203 610.0087752787101 268.1682718234073 587.0632357489428C196.42013330229412 564.1176962191754 113.87903115285962 428.95257205559824 126.23801851670481 354.6454485956144C138.59700588054994 280.33832513563067 257.2240512483236 257.5329429200423 327.49141116986436 230.38904314102064C397.75877109140515 203.245143361999 391.12650365631293 203.5393519920815 463.52134614010106 224.35472965631027C535.9161886238892 245.170107320539 673.5058764924745 280.21341662053015 674.9866550920468 330.3028559293191C676.4674336916191 380.3922952381081 555.382913265681 411.2922925427423 470.6290834180479 464.78403833849734 "></path><path d="M662.4872311611939 333.4709280463902C663.9007016426037 381.28357465932504 548.3200230542084 410.7790266319305 467.4186400178312 461.83932943696936C386.517256981454 512.8996322420082 342.6474520840095 600.4629419708087 274.16059258658333 578.5603815105763C205.67373308915717 556.657821050344 126.88449921924246 427.63656616692924 138.68171443018554 356.7070392278539C150.47892964112867 285.7775122887785 263.71383658309435 264.00873835571684 330.78722559911057 238.09865220301435C397.8606146151269 212.18856605031192 391.5298138816297 212.4694015608452 460.63398170706387 232.33862569488173C529.7381495324979 252.20784982891826 661.073760679784 285.6582814334553 662.4872311611939 333.4709280463902C663.9007016426037 381.28357465932504 548.3200230542084 410.7790266319305 467.4186400178312 461.83932943696936 "></path><path d="M649.987837747919 336.6389849046722C651.3340001111666 382.17483882175304 541.2571633603138 410.2657454623296 464.2082271351926 458.8946052766523C387.1592909100715 507.52346509097515 345.37852434107674 590.9170934041185 280.1529438673375 570.0575120134209C214.92736339359834 549.1979306227233 139.88999780320336 426.3205450194713 151.12544086124439 358.7686146013043C162.36088391928547 291.21668418313726 270.20365243544325 270.48451853260235 334.0830705459349 245.80824600621906C397.96248865642656 221.13197347983572 391.9331546245246 221.39943587081984 457.7466477916046 240.32250647466412C523.5601409586848 259.24557707850846 648.6416753846715 291.1031309875913 649.987837747919 336.6389849046722C651.3340001111666 382.17483882175304 541.2571633603138 410.2657454623296 464.2082271351926 458.8946052766523 "></path><path d="M637.4884595934332 339.806995986587C638.7673138385184 383.06605720781386 534.1943189252082 409.75241851636156 460.99782951134307 455.9498353399682C387.80134009747803 502.1472521635749 348.10961185693304 581.3711990610609 286.1453104068808 561.5545967398983C224.18100895682858 541.7379944187356 152.89551164595332 425.00447809564616 163.56918255109235 360.83014419838753C174.24285345623133 296.65581030112884 276.69348354658126 276.96025293312067 337.3789307515483 253.51779403305653C398.0643779565154 230.0753351329924 392.33651062620845 230.3294244044273 454.85932913493457 248.3063414780794C517.3821476436607 266.2832585517315 636.2096053483481 296.5479347653602 637.4884595934332 339.806995986587C638.7673138385184 383.06605720781386 534.1943189252082 409.75241851636156 460.99782951134307 455.9498353399682 "></path><path d="M624.9890204037912 342.9750833624472C626.200566530714 383.95735188782 527.1314134549464 409.2391678643389 457.7873708523374 453.0051416972294C388.44332824972844 496.7711155301198 350.8406383376331 571.8253810119488 292.13761591126786 553.051757760321C233.43459348490256 534.2781345086933 165.9009644535471 423.68848746576646 176.01286320578402 362.89175008941606C186.124761958021 302.0950127130657 283.18325362256303 283.4360636275843 340.6747299220055 261.2274183538393C398.16620622144796 239.01877308009438 392.73980559273616 239.25948923198007 451.9719494431083 256.2902527754399C511.20409329348035 273.3210163188998 623.7774742768684 301.9928148370744 624.9890204037912 342.9750833624472C626.200566530714 383.95735188782 527.1314134549464 409.2391678643389 457.7873708523374 453.0051416972294 "></path><path d="M612.4896422493055 346.14312496194015C613.6338802580658 384.84860079145886 520.0685690198409 408.725871435949 454.576973228488 450.0604022781233C389.085377437135 491.39493312029765 353.57172585348945 562.2795171864695 298.1299824508111 544.5488730043766C242.6882390481328 526.8182288222836 178.90647829629705 422.37245105951934 188.45660489563198 364.9533102040774C198.00673149496686 307.53416934863543 289.673084733701 289.91182854568075 343.9705901276189 268.93699689825496C398.2680955215369 247.96216525082912 393.1431615944201 248.1895082831656 449.0846307864382 264.27411829643324C505.0260999784563 280.35872830970095 611.345404240545 307.43764913242137 612.4896422493055 346.14312496194015C613.6338802580658 384.84860079145886 520.0685690198409 408.725871435949 454.576973228488 450.0604022781233 "></path><path d="M599.9902946123977 349.3111970790112C601.0672245029957 385.73988021267587 513.0057551023135 408.2126055251372 451.3666061222166 447.11569337659535C389.72745714211965 486.0187812280535 356.3028438869239 552.7336838785682 304.1223795079325 536.0460187660102C251.94191512894116 519.3583536534521 191.9120226566252 421.05644517085057 200.90037710305802 367.0149008363169C209.8887315494909 312.97335650178326 296.16294636241713 296.3876239813553 347.26648085081047 276.6466059602487C398.37001533920375 256.90558793914204 393.5465481136821 257.1195578519293 446.1973426473462 272.25801433500476C498.8481371810103 287.3964708180802 598.9133647217997 312.8825139453465 599.9902946123977 349.3111970790112C601.0672245029957 385.73988021267587 513.0057551023135 408.2126055251372 451.3666061222166 447.11569337659535 "></path><path d="M587.4908859403338 352.4792234197151C588.5005077127694 386.63111385752575 505.9428801496299 407.6992938379582 448.15617798078904 444.1709386987002C390.3694758119482 480.6425835594423 359.03390088520206 543.1878047942998 310.1147155298977 527.5431187512766C261.1955301745933 511.8984327082535 204.91750598179704 419.7403935058144 213.34408827532786 369.07644569218917C221.77067056885863 318.4124978785639 302.652746955977 302.8633736406627 350.56231053884574 284.3561692458752C398.47187412171445 265.84896485108777 393.9498735977879 266.0495616443258 443.3099934730981 280.24186459720903C492.6701133484081 294.4341675500923 586.4812641678982 318.3273329819044 587.4908859403338 352.4792234197151C588.5005077127694 386.63111385752575 505.9428801496299 407.6992938379582 448.15617798078904 444.1709386987002 "></path><path d="M574.9914925270589 355.647265019208C575.9338061813321 387.5223627611647 498.88002045573535 407.18599740956824 444.94576509815045 441.2261992795942C391.01150974056566 475.26640114962015 361.76497314226935 533.6419409688204 316.1070668106519 519.0402339953322C270.44916047903445 504.4385270218438 217.923004565758 418.42435709956743 225.7878147063867 371.1380058068505C233.65262484701543 323.8516545141336 309.1425628083259 309.33913855875915 353.85815548567007 292.06574779029086C398.5737481630142 274.7923570218225 394.3532143406828 274.9795806955114 440.4226595576389 288.2257301182024C486.49210477459496 301.4718795408934 574.0491788727857 323.77216727725147 574.9914925270589 355.647265019208C575.9338061813321 387.5223627611647 498.88002045573535 407.18599740956824 444.94576509815045 441.2261992795942 "></path><path d="M562.492099113784 358.81533713627914C563.367104649895 388.4136421823817 491.8171607618407 406.67273149875643 441.73535221551197 438.2814903780662C391.6535436691832 469.890249257376 364.4960453993366 524.0961076609192 322.0994180914061 510.53737975696583C279.7027907834756 496.97865185301237 230.9285031497189 417.10835121089855 238.23154113744556 373.19959643909C245.53457912517229 329.2908416672814 315.6323786606749 315.8149339944337 357.1540004324944 299.7753568522846C398.675622204314 283.73577971013543 394.7565550835777 283.9096302642751 437.5353256421797 296.2096261567739C480.3140962007818 308.50962204927265 561.6170935776731 329.21703209017653 562.492099113784 358.81533713627914C563.367104649895 388.4136421823817 491.8171607618407 406.67273149875643 441.73535221551197 438.2814903780662 "></path><path d="M549.9927057005092 361.9833787357721C550.8004031184578 389.3048910860206 484.754301067946 406.15943507036656 438.5249393328734 435.3367509589602C392.29557759780073 464.51406684755386 367.22711765640383 514.5502438354399 328.09176937216034 502.03449500102136C288.9564210879168 489.5187461666028 243.93400173367985 415.79231480465154 250.67526756850447 375.26115655375133C257.4165334033291 334.7299983028511 322.12219451302377 322.29069891253016 360.4498453793188 307.48493539670017C398.77749624561375 292.6791718808702 395.1598958264725 292.83964931546063 434.64799172672065 304.1934916777672C474.1360876269687 315.5473340400738 549.1850082825607 334.6618663855236 549.9927057005092 361.9833787357721C550.8004031184578 389.3048910860206 484.754301067946 406.15943507036656 438.5249393328734 435.3367509589602 "></path><path d="M537.4933122872344 365.1514661116322C538.2337015870205 390.1961857660267 477.69144137405146 405.6461844183438 435.3145264502349 432.3920573162213C392.9376115264182 459.1379302140988 369.9581899134711 505.0044257863277 334.0841206529146 493.53165602144406C298.21005139235797 482.0588862565603 256.93950031764075 414.4763241747718 263.1189939995633 377.32276244477987C269.29848768148594 340.16920071478796 328.6120103653727 328.7665096069938 363.7456903261431 315.194559717483C398.8793702869135 301.62260982797216 395.5632365693674 301.7697141430134 431.76065781126147 312.1774029751278C467.95807905315553 322.5850918072421 536.7529229874482 340.10674645723776 537.4933122872344 365.1514661116322C538.2337015870205 390.1961857660267 477.69144137405146 405.6461844183438 435.3145264502349 432.3920573162213 "></path><path d="M524.9939188739595 368.3194771935471C525.6670000555832 391.08740415208746 470.6285816801569 405.13285747237575 432.1041135675963 429.4472873795371C393.57964545503575 453.7617172866985 372.68926217053837 495.4585314432702 340.07647193366876 485.02874074792135C307.4636816967992 474.5989500525726 269.94499890160165 413.1602572509466 275.5627204306222 379.3842920418631C281.18044195964274 345.60832683277954 335.1018262177216 335.2422440075121 367.04153527296745 322.90410774432047C398.9812443282133 310.5659714811288 395.9665773122623 310.69970267662086 428.8733238958023 320.161237978543C461.7800704793424 329.62277328046514 524.3208376923358 345.55155023500663 524.9939188739595 368.3194771935471C525.6670000555832 391.08740415208746 470.6285816801569 405.13285747237575 432.1041135675963 429.4472873795371 "></path><path d="M512.4945254606846 371.48754931061814C513.1002985241461 391.9786835733045 463.56572198626225 404.619591561564 428.89370068495776 426.50257847800924C394.2216793836533 448.38556539445443 375.4203344276056 485.91269813536894 346.068823214423 476.525886509555C316.7173120012404 467.13907488374116 282.9504974855626 411.84425136227776 288.00644686168107 381.44588267410256C293.06239623779953 351.04751398592737 341.5916420700706 341.7180394431867 370.33738021979184 330.6137168063142C399.08311836951304 319.5093941694417 396.36991805515714 319.62975224538457 425.9859899803432 328.1451340171145C455.60206190552924 336.6605157888444 511.88875239722324 350.99641504793175 512.4945254606846 371.48754931061814C513.1002985241461 391.9786835733045 463.56572198626225 404.619591561564 428.89370068495776 426.50257847800924 "></path><path d="M499.9951320474098 374.6555909101111C500.5335969927088 392.8699324769434 456.5028622923677 404.10629513317406 425.6832878023192 423.55783905890314C394.86371331227076 443.0093829846322 378.1514066846729 476.36683430988955 352.06117449517717 468.0230017536106C325.97094230568155 459.67916919733153 295.9559960695235 410.52821495603075 300.45017329274 383.5074427887639C304.9443505159564 356.48667062149707 348.0814579224195 348.1938043612831 373.63322516661617 338.32329535072984C399.1849924108128 328.4527863401765 396.773258798052 328.55977129657015 423.09865606488404 336.12899953810785C449.4240533317161 343.69822777964555 499.4566671021107 356.44124934327874 499.9951320474098 374.6555909101111C500.5335969927088 392.8699324769434 456.5028622923677 404.10629513317406 425.6832878023192 423.55783905890314 "></path><path d="M487.4957386341349 377.823632509604C487.9668954612715 393.76118138058234 449.44000259847314 403.5929987047841 422.4728749196807 420.6130996397971C395.5057472408883 437.6332005748101 380.88247894174015 466.8209704844102 358.0535257759314 459.5201169976661C335.2245726101227 452.2192635109219 308.96149465348446 409.21217854978374 312.8938997237988 385.56900290342526C316.8263047941132 361.92582725706677 354.57127377476843 354.6695692793796 376.9290701134405 346.0328738951454C399.2868664521126 337.3961785109113 397.1765995409469 337.4897903477557 420.2113221494249 344.1128650591012C443.24604475790295 350.7359397704467 487.0245818069983 361.88608363862573 487.4957386341349 377.823632509604C487.9668954612715 393.76118138058234 449.44000259847314 403.5929987047841 422.4728749196807 420.6130996397971 "></path><path d="M474.99634522086006 380.991689367886C475.40019392983436 394.6524455430103 442.3771429045785 403.07971753518325 419.26246203704216 417.6683754794801C396.14778116950583 432.25703342377693 383.6135511988074 457.27512191771996 364.04587705668564 451.0172475005107C344.4782029145639 444.7593730833014 321.96699323744537 407.8961574023258 325.3376261548577 387.63057827687567C328.70825907227004 367.36499915142554 361.0610896271174 361.1453494562651 380.22491506026483 353.7424676983501C399.38874049341234 346.3395859404351 397.5799402838417 346.4198246577303 417.3239882339658 352.09674583888363C437.0680361840898 357.7736670200369 474.5924965118858 367.3309331927618 474.99634522086006 380.991689367886C475.40019392983436 394.6524455430103 442.3771429045785 403.07971753518325 419.26246203704216 417.6683754794801 "></path><path d="M462.4969518075852 384.159730967379C462.8334923983971 395.5436944466492 435.3142832106839 402.56642110679337 416.0520491544036 414.723636060374C396.7898150981233 426.8808510139547 386.3446234558746 447.72925809224057 370.0382283374399 442.51436274456614C353.73183321900507 437.29946739689177 334.9724918214063 406.5801209960788 337.7813525859166 389.692138391537C340.59021335042684 372.80415578699524 367.5509054794663 367.6211143743615 383.5207600070892 361.4520462427657C399.4906145347121 355.2829781111699 397.9832810267366 355.3498437089159 414.4366543185066 360.08061135987697C430.89002761027666 364.81137901083804 462.16041121677335 372.7757674881088 462.4969518075852 384.159730967379C462.8334923983971 395.5436944466492 435.3142832106839 402.56642110679337 416.0520491544036 414.723636060374 "></path><path d="M449.99757365309944 387.32780308445007C450.26680612574893 396.43497386786623 428.2514387755784 402.05315519598156 412.84165153055415 411.7789271588461C397.4318642855299 421.50469912171064 389.075710971731 438.1834247843393 376.0305948769831 434.0115085061998C362.9854787822353 429.83959222806027 347.9780056641563 405.2641151074099 350.2250942757645 391.7537290237765C352.4721828873727 378.24334294014307 374.0407365906043 374.0969098100361 386.8166202127026 369.16165530475945C399.59250383480094 364.22640079948275 398.3866370284205 364.2798932776796 411.54933566183655 368.0645073984484C424.7120342952526 371.8491215192173 449.7283411804499 378.2206323010339 449.99757365309944 387.32780308445007C450.26680612574893 396.43497386786623 428.2514387755784 402.05315519598156 412.84165153055415 411.7789271588461 "></path><path d="M437.4981802398246 390.495844683943C437.7001045943117 397.3262227715052 421.18857908168377 401.5398587675916 409.6312386479156 408.83418773974006C398.07389821414745 416.12851671188844 391.8067832287982 428.63756095886 382.02294615773735 425.5086237502553C372.2391090866765 422.3796865416507 360.98350424811724 403.9480787011629 362.6688207068234 393.81528913843783C364.35413716552955 383.68249957571277 380.5305524429532 380.57267472813254 390.11246515952695 376.87123384917504C399.6943778761007 373.16979297021754 398.7899777713154 373.2099123288652 408.6620017463774 376.0483729194418C418.53402572143943 378.88683351001845 437.2962558853375 383.6654665963809 437.4981802398246 390.495844683943C437.7001045943117 397.3262227715052 421.18857908168377 401.5398587675916 409.6312386479156 408.83418773974006 "></path><path d="M424.9987868265497 393.66390154222506C425.1334030628745 398.2174869339331 414.1257193877892 401.0265775979908 406.4208257652771 405.8894635794231C398.715932142765 410.75234956085535 394.53785548586546 419.09171239216965 388.0152974384916 417.0057542530999C381.49273939111765 414.91979611403013 373.98900283207814 402.63205755370495 375.11254713788225 395.87686451188824C376.23609144368635 389.12167147007153 387.02036829530215 387.04845490501805 393.40831010635134 384.5808276523797C399.79625191740047 382.1132003997414 399.19331851421026 382.1399466388398 405.77466783091825 384.0322536992242C412.3560171476263 385.92456075960865 424.86417059022494 389.11031615051695 424.9987868265497 393.66390154222506C425.1334030628745 398.2174869339331 414.1257193877892 401.0265775979908 406.4208257652771 405.8894635794231 "></path><path d="M412.49939341327484 396.831943141718C412.5667015314372 399.10873583757206 407.0628596938946 400.5132811696009 403.21041288263854 402.944724160317C399.35796607138246 405.37616715103314 397.26892774293276 409.5458485666903 394.00764871924576 408.5028694971554C390.7463696955588 407.45989042762056 386.9945014160391 401.31602114745795 387.55627356894115 397.9384246265496C388.1180457218432 394.56082810564124 393.51018414765105 393.5242198231145 396.70415505317567 392.29040619679535C399.89812595870023 391.05659257047614 399.59665925710516 391.06996569002536 402.8873339154591 392.0161192202176C406.17800857381314 392.9622727504098 412.4320852951125 394.55515044586394 412.49939341327484 396.831943141718C412.5667015314372 399.10873583757206 407.0628596938946 400.5132811696009 403.21041288263854 402.944724160317 "></path></g></svg>